<?xml version="1.0" encoding="UTF-8"?>
<svg id="Layer_1" data-name="Layer 1" xmlns="http://www.w3.org/2000/svg" viewBox="0 0 98.03 120">
  <defs>
    <style>
      .cls-1 {
        stroke-width: 0px;
      }
    </style>
  </defs>
  <path class="cls-1" d="m.04,20.91c.26.15.46.26.65.38,2.29,1.4,4.59,2.81,6.88,4.21,1.64,1,3.28,2,4.92,3,1.64,1,3.29,2,4.93,3.01.47.29.94.6,1.42.87.09.05.27.06.36,0,3.01-1.83,6.02-3.67,9.02-5.52,2.97-1.82,5.93-3.65,8.9-5.48,3.01-1.85,6.01-3.69,9.02-5.54,3.33-2.05,6.66-4.1,9.99-6.15,2.72-1.68,5.45-3.35,8.18-5.02,1.15-.7,2.29-1.44,3.48-2.07,2.3-1.22,4.75-1.98,7.33-2.36,2.31-.34,4.61-.33,6.91.06,3,.51,5.7,1.68,8.09,3.57,2.81,2.22,4.83,5.04,6.18,8.33,1.29,3.15,1.87,6.43,1.7,9.83-.08,1.58-.38,3.13-.81,4.65-.6,2.13-1.54,4.13-2.7,6.01-1.22,1.99-2.61,3.88-4.17,5.62-1.16,1.29-2.31,2.58-3.56,3.78-1.57,1.5-3.21,2.94-4.86,4.35-1.21,1.03-2.45,2.03-3.73,2.97-2.37,1.74-4.76,3.45-7.18,5.13-1.86,1.28-3.76,2.51-5.67,3.71-2.21,1.4-4.46,2.74-6.69,4.11-1.39.85-2.77,1.72-4.16,2.57-2.07,1.27-4.15,2.52-6.22,3.79-1.68,1.03-3.36,2.08-5.04,3.12-1.42.87-2.84,1.73-4.26,2.6-1.29.79-2.57,1.58-3.86,2.37-1.12.69-2.24,1.37-3.36,2.06-1.03.63-2.06,1.28-3.09,1.91-1.5.92-3,1.83-4.49,2.75-1.57.96-3.15,1.91-4.71,2.88-.3.19-.53.21-.85.01-1.28-.8-2.58-1.58-3.87-2.36-1.49-.91-2.99-1.81-4.48-2.72-1.46-.9-2.92-1.81-4.39-2.7-1.52-.93-3.05-1.84-4.57-2.76-.37-.22-.74-.45-1.1-.67-.13-.08-.2-.16-.17-.35.04-.29.02-.6.02-.9,0-6.09,0-12.17,0-18.26,0-.16,0-.32,0-.55,6.35,3.87,12.64,7.71,18.96,11.56,1.39-.85,2.79-1.71,4.19-2.57,1.11-.68,2.21-1.36,3.32-2.04,1.4-.86,2.81-1.72,4.21-2.59,1.9-1.17,3.81-2.34,5.71-3.51,2.11-1.29,4.21-2.58,6.32-3.88,2.24-1.37,4.48-2.75,6.71-4.13,1.89-1.17,3.78-2.35,5.68-3.51,1.7-1.04,3.42-2.07,5.12-3.11,1.57-.96,3.14-1.93,4.71-2.91,1.66-1.04,3.35-2.04,4.96-3.15,1.49-1.02,2.93-2.11,4.33-3.25,1.33-1.08,2.62-2.2,3.85-3.39,1.22-1.19,2.38-2.47,3.17-4.01.71-1.39.99-2.84.51-4.37-.67-2.13-2.66-3.24-4.99-2.79-1.19.23-2.27.73-3.29,1.37-2.38,1.49-4.76,2.96-7.14,4.44-2.06,1.27-4.13,2.53-6.18,3.81-2.19,1.36-4.37,2.73-6.55,4.09-1.46.91-2.93,1.8-4.39,2.71-1.82,1.13-3.63,2.27-5.45,3.39-1.3.81-2.61,1.6-3.92,2.41-1.69,1.05-3.38,2.1-5.07,3.15-1.84,1.14-3.69,2.26-5.53,3.4-2.33,1.43-4.66,2.87-6.99,4.31-1,.62-2,1.23-2.99,1.86-.19.12-.32.12-.52,0-1.91-1.19-3.82-2.37-5.74-3.55-1.26-.78-2.52-1.55-3.78-2.32-1.66-1.02-3.33-2.03-5-3.05-1.32-.81-2.64-1.61-3.96-2.42-.16-.1-.25-.22-.25-.44,0-6.44,0-12.88,0-19.31,0-.12,0-.24,0-.43Z"/>
  <path class="cls-1" d="m.03,88.98c.86.52,1.65,1,2.45,1.48,1.35.82,2.71,1.62,4.06,2.44,1.11.67,2.21,1.36,3.31,2.03.91.55,1.84,1.08,2.75,1.63,1.1.66,2.19,1.34,3.29,2.01.96.58,1.93,1.15,2.89,1.73.13.08.21.08.35,0,1.47-.92,2.95-1.81,4.41-2.72,1.21-.75,2.4-1.52,3.61-2.26,1.48-.92,2.97-1.82,4.45-2.73,1.95-1.2,3.9-2.39,5.84-3.6,1.57-.97,3.13-1.96,4.7-2.93,1.8-1.11,3.61-2.22,5.42-3.33,1.71-1.05,3.41-2.11,5.12-3.17,1.18-.73,2.37-1.44,3.55-2.17,2.01-1.25,4.02-2.5,6.03-3.75,1.27-.78,2.54-1.55,3.81-2.34,1.6-.99,3.19-1.98,4.79-2.97,1.46-.9,2.93-1.8,4.39-2.7.14-.09.23-.1.38.01,1.83,1.43,3.67,2.86,5.51,4.28,1.89,1.46,3.78,2.91,5.67,4.37.87.67,1.72,1.36,2.63,2.08-.47.29-.9.57-1.33.83-1.84,1.14-3.68,2.29-5.52,3.43-1.07.66-2.15,1.31-3.23,1.98-1.25.78-2.48,1.57-3.73,2.34-1.6.99-3.21,1.98-4.81,2.97-1.7,1.05-3.39,2.1-5.09,3.15-1.47.91-2.95,1.82-4.42,2.73-1.6.99-3.2,1.99-4.81,2.98-2.66,1.64-5.33,3.27-7.99,4.92-1.19.74-2.37,1.5-3.57,2.24-3.16,1.96-6.31,3.92-9.47,5.87-4.62,2.86-9.24,5.71-13.85,8.57-.8.49-1.59.99-2.38,1.5-.18.11-.31.13-.5.02-2.41-1.47-4.83-2.93-7.25-4.4-2.45-1.5-4.91-3-7.35-4.5-1.15-.71-2.27-1.48-3.46-2.11-.56-.3-.68-.63-.67-1.2.02-5.9.02-11.8.02-17.7,0-.32,0-.64,0-1.03Z"/>
</svg>